# xmcd
#
# Track frame offsets: 
#        150
#        16854
#        37642
#        55085
#        71666
#        93526
#        111802
#        131842
#        152698
#        172260
#        190642
#        217749
#
# Disc length: 3158 seconds
#
# Revision: 1
# Processed by: cddbd v1.5.2PL0 Copyright (c) Steve Scherf et al.
# Submitted via: ExactAudioCopy v1.0b3
#
DISCID=980c540c
DTITLE=Maleo Reggae Rockers - Addis Abeba
DYEAR=2009
DGENRE=Reggae
TTITLE0=Droga Wojownika
TTITLE1=Kazda Minuta
TTITLE2=Alibi
TTITLE3=Serca Nie Oszukasz
TTITLE4=Czekamy
TTITLE5=Dzikie Serce
TTITLE6=Reggae Radio
TTITLE7=Put Your Guns Down
TTITLE8=Od Nova
TTITLE9=See Mount Zion
TTITLE10=Salut Dla Was
TTITLE11=Pytanie
EXTD=
EXTT0=
EXTT1=
EXTT2=
EXTT3=
EXTT4=
EXTT5=
EXTT6=
EXTT7=
EXTT8=
EXTT9=
EXTT10=
EXTT11=
PLAYORDER=
